<svg width="250" height="200" viewBox="0 0 250 200" fill="none" xmlns="http://www.w3.org/2000/svg">
<g clip-path="url(#clip0_10_3)">
<path d="M27.5786 26.1373C27.1069 12.5392 37.6602 0 51.9248 0H198.093C212.358 0 222.911 12.5392 222.439 26.1373C221.986 39.1995 222.575 56.1201 226.816 69.9167C231.072 83.7559 238.248 92.5034 250 93.6275V106.373C238.248 107.497 231.072 116.244 226.816 130.083C222.575 143.88 221.986 160.8 222.439 173.863C222.911 187.461 212.358 200 198.093 200H51.9248C37.6602 200 27.1069 187.461 27.5791 173.863C28.0317 160.8 27.4434 143.88 23.2012 130.083C18.9463 116.244 11.7529 107.497 0 106.373V93.6275C11.7524 92.5034 18.9463 83.7559 23.2012 69.9167C27.4434 56.1201 28.0317 39.1995 27.5786 26.1373Z" fill="url(#paint0_linear_10_3)"/>
<g filter="url(#filter0_d_10_3)">
<path d="M130.421 153.165C153.516 153.165 167.432 141.813 167.432 123.089C167.432 108.936 157.502 98.6892 142.758 97.0672V96.4775C153.591 94.7083 162.091 84.6093 162.091 73.3309C162.091 57.2608 149.454 46.7927 130.196 46.7927H86.8657V153.165H130.421ZM103.716 60.2829H126.134C138.32 60.2829 145.241 65.7378 145.241 75.6157C145.241 86.1574 137.192 92.0544 122.598 92.0544H103.716V60.2829ZM103.716 139.675V104.66H125.983C141.931 104.66 150.206 110.557 150.206 122.057C150.206 133.557 142.157 139.675 126.961 139.675H103.716Z" fill="url(#paint1_linear_10_3)"/>
<path d="M130.421 153.165C153.516 153.165 167.432 141.813 167.432 123.089C167.432 108.936 157.502 98.6892 142.758 97.0672V96.4775C153.591 94.7083 162.091 84.6093 162.091 73.3309C162.091 57.2608 149.454 46.7927 130.196 46.7927H86.8657V153.165H130.421ZM103.716 60.2829H126.134C138.32 60.2829 145.241 65.7378 145.241 75.6157C145.241 86.1574 137.192 92.0544 122.598 92.0544H103.716V60.2829ZM103.716 139.675V104.66H125.983C141.931 104.66 150.206 110.557 150.206 122.057C150.206 133.557 142.157 139.675 126.961 139.675H103.716Z" stroke="white"/>
</g>
</g>
<defs>
<filter id="filter0_d_10_3" x="70.3657" y="34.2927" width="113.566" height="139.373" filterUnits="userSpaceOnUse" color-interpolation-filters="sRGB">
<feFlood flood-opacity="0" result="BackgroundImageFix"/>
<feColorMatrix in="SourceAlpha" type="matrix" values="0 0 0 0 0 0 0 0 0 0 0 0 0 0 0 0 0 0 127 0" result="hardAlpha"/>
<feOffset dy="4"/>
<feGaussianBlur stdDeviation="8"/>
<feColorMatrix type="matrix" values="0 0 0 0 0 0 0 0 0 0 0 0 0 0 0 0 0 0 0.15 0"/>
<feBlend mode="normal" in2="BackgroundImageFix" result="effect1_dropShadow_10_3"/>
<feBlend mode="normal" in="SourceGraphic" in2="effect1_dropShadow_10_3" result="shape"/>
</filter>
<linearGradient id="paint0_linear_10_3" x1="37.1479" y1="5.29314" x2="256.266" y2="178.55" gradientUnits="userSpaceOnUse">
<stop stop-color="#9013FE"/>
<stop offset="1" stop-color="#6610F2"/>
</linearGradient>
<linearGradient id="paint1_linear_10_3" x1="94.4863" y1="53.7941" x2="143.601" y2="136.534" gradientUnits="userSpaceOnUse">
<stop stop-color="white"/>
<stop offset="1" stop-color="#F1E5FC"/>
</linearGradient>
<clipPath id="clip0_10_3">
<rect width="250" height="200" fill="white"/>
</clipPath>
</defs>
</svg>
