<svg width="250" height="220" viewBox="0 0 250 220" fill="none" xmlns="http://www.w3.org/2000/svg">
<g clip-path="url(#clip0_10_3)">
<path d="M27.5786 28.751C27.1069 13.7931 37.6602 0 51.9248 0H198.093C212.358 0 222.911 13.7931 222.439 28.751C221.986 43.1195 222.575 61.7321 226.816 76.9083C231.072 92.1315 238.248 101.754 250 102.99V117.01C238.248 118.246 231.072 127.869 226.816 143.092C222.575 158.268 221.986 176.881 222.439 191.25C222.911 206.207 212.358 220 198.093 220H51.9248C37.6602 220 27.1069 206.207 27.5791 191.25C28.0317 176.881 27.4434 158.268 23.2012 143.092C18.9463 127.869 11.7529 118.246 0 117.01V102.99C11.7524 101.754 18.9463 92.1315 23.2012 76.9083C27.4434 61.7321 28.0317 43.1195 27.5786 28.751Z" fill="url(#paint0_linear_10_3)"/>
<g filter="url(#filter0_d_10_3)">
<path d="M130.421 168.482C153.516 168.482 167.432 155.995 167.432 135.398C167.432 119.829 157.502 108.558 142.758 106.774V106.125C153.591 104.179 162.091 93.0702 162.091 80.664C162.091 62.9869 149.454 51.4719 130.196 51.4719H86.8657V168.482H130.421ZM103.716 66.3111H126.134C138.32 66.3111 145.241 72.3115 145.241 83.1772C145.241 94.7731 137.192 101.26 122.598 101.26H103.716V66.3111ZM103.716 153.643V115.126H125.983C141.931 115.126 150.206 121.613 150.206 134.263C150.206 146.913 142.157 153.643 126.961 153.643H103.716Z" fill="url(#paint1_linear_10_3)"/>
<path d="M130.421 168.482C153.516 168.482 167.432 155.995 167.432 135.398C167.432 119.829 157.502 108.558 142.758 106.774V106.125C153.591 104.179 162.091 93.0702 162.091 80.664C162.091 62.9869 149.454 51.4719 130.196 51.4719H86.8657V168.482H130.421ZM103.716 66.3111H126.134C138.32 66.3111 145.241 72.3115 145.241 83.1772C145.241 94.7731 137.192 101.26 122.598 101.26H103.716V66.3111ZM103.716 153.643V115.126H125.983C141.931 115.126 150.206 121.613 150.206 134.263C150.206 146.913 142.157 153.643 126.961 153.643H103.716Z" stroke="white"/>
</g>
</g>
<defs>
<filter id="filter0_d_10_3" x="70.3657" y="38.9719" width="113.566" height="150.01" filterUnits="userSpaceOnUse" color-interpolation-filters="sRGB">
<feFlood flood-opacity="0" result="BackgroundImageFix"/>
<feColorMatrix in="SourceAlpha" type="matrix" values="0 0 0 0 0 0 0 0 0 0 0 0 0 0 0 0 0 0 127 0" result="hardAlpha"/>
<feOffset dy="4"/>
<feGaussianBlur stdDeviation="8"/>
<feColorMatrix type="matrix" values="0 0 0 0 0 0 0 0 0 0 0 0 0 0 0 0 0 0 0.15 0"/>
<feBlend mode="normal" in2="BackgroundImageFix" result="effect1_dropShadow_10_3"/>
<feBlend mode="normal" in="SourceGraphic" in2="effect1_dropShadow_10_3" result="shape"/>
</filter>
<linearGradient id="paint0_linear_10_3" x1="37.1479" y1="5.82246" x2="271.942" y2="174.596" gradientUnits="userSpaceOnUse">
<stop stop-color="#9013FE"/>
<stop offset="1" stop-color="#6610F2"/>
</linearGradient>
<linearGradient id="paint1_linear_10_3" x1="94.4863" y1="59.1735" x2="150.832" y2="145.465" gradientUnits="userSpaceOnUse">
<stop stop-color="white"/>
<stop offset="1" stop-color="#F1E5FC"/>
</linearGradient>
<clipPath id="clip0_10_3">
<rect width="250" height="220" fill="white"/>
</clipPath>
</defs>
</svg>
