<svg width="220" height="250" viewBox="0 0 220 250" fill="none" xmlns="http://www.w3.org/2000/svg">
<g clip-path="url(#clip0_13_60)">
<mask id="mask0_13_60" style="mask-type:luminance" maskUnits="userSpaceOnUse" x="0" y="0" width="220" height="250">
<path d="M220 0H0V250H220V0Z" fill="white"/>
</mask>
<g mask="url(#mask0_13_60)">
<path d="M220 49.1309L199.957 229.892L109.865 250L20.0213 229.92L0 49.1309H220Z" fill="#264DE4"/>
<path d="M182.799 218.382L199.926 63.9131H110V234.63L182.799 218.382Z" fill="#2965F1"/>
<path d="M45.8985 130.965L48.367 153.138H110V130.965H45.8985Z" fill="#EBEBEB"/>
<path d="M110 86.0864H109.905H40.9385L43.4421 108.26H110V86.0864Z" fill="#EBEBEB"/>
<path d="M110 211.621V188.551L109.879 188.577L79.2059 181.909L77.2451 164.225H62.3402H49.5976L53.4561 199.04L109.873 211.649L110 211.621Z" fill="#EBEBEB"/>
<path d="M51.7755 0H85.1333V11.2305H65.7251V22.4609H85.1333V33.6914H51.7755V0Z" fill="black"/>
<path d="M91.8048 0H125.162V9.76562H105.754V11.7188H125.162V34.1797H91.8048V23.9258H111.213V21.9727H91.8048V0Z" fill="black"/>
<path d="M131.834 0H165.191V9.76562H145.784V11.7188H165.191V34.1797H131.834V23.9258H151.242V21.9727H131.834V0Z" fill="black"/>
<path d="M143.819 153.138L140.623 181.895L109.905 188.57V211.638L166.366 199.04L166.781 195.294L173.253 136.919L173.925 130.965L178.897 86.0864H109.905V108.26H148.713L146.208 130.965H109.905V153.138H143.819Z" fill="white"/>
</g>
</g>
<defs>
<clipPath id="clip0_13_60">
<rect width="220" height="250" fill="white"/>
</clipPath>
</defs>
</svg>
