<svg width="150" height="200" viewBox="0 0 150 200" fill="none" xmlns="http://www.w3.org/2000/svg">
<g clip-path="url(#clip0_11_6)">
<path d="M150 39.3047L136.335 183.914L74.9082 200L13.6509 183.936L0 39.3047H150Z" fill="#264DE4"/>
<path d="M124.636 174.705L136.313 51.1305H75V187.704L124.636 174.705Z" fill="#2965F1"/>
<path d="M31.2944 104.772L32.9775 122.511H75V104.772H31.2944Z" fill="#EBEBEB"/>
<path d="M75 68.8692H74.9351H27.9126L29.6196 86.6078H75V68.8692Z" fill="#EBEBEB"/>
<path d="M74.9999 169.296V150.841L74.9176 150.862L54.0039 145.527L52.667 131.38H42.5046H33.8164L36.4473 159.232L74.9135 169.319L74.9999 169.296Z" fill="#EBEBEB"/>
<path d="M35.3015 0H58.0455V8.98438H44.8126V17.9688H58.0455V26.9531H35.3015V0Z" fill="black"/>
<path d="M62.5942 0H85.3382V7.8125H72.1053V9.375H85.3382V27.3438H62.5942V19.1406H75.8271V17.5781H62.5942V0Z" fill="black"/>
<path d="M89.887 0H112.631V7.8125H99.3981V9.375H112.631V27.3438H89.887V19.1406H103.12V17.5781H89.887V0Z" fill="black"/>
<path d="M98.0586 122.511L95.8789 145.516L74.9351 150.856V169.311L113.432 159.232L113.714 156.235L118.127 109.536L118.585 104.772L121.975 68.8692H74.9351V86.6078H101.396L99.6871 104.772H74.9351V122.511H98.0586Z" fill="white"/>
</g>
<defs>
<clipPath id="clip0_11_6">
<rect width="150" height="200" fill="white"/>
</clipPath>
</defs>
</svg>
