<svg width="250" height="250" viewBox="0 0 250 250" fill="none" xmlns="http://www.w3.org/2000/svg">
<g clip-path="url(#clip0_13_54)">
<path d="M52.9297 0H64.1602V11.1328H74.5117V0H85.7422V33.6914H74.5117V22.461H64.2578V33.6914H52.9297M100.586 11.2305H90.6738V0H121.777V11.2305H111.816V33.6914H100.586M126.709 0H138.477L145.703 11.8652L152.93 0H164.697V33.6914H153.467V16.9921L145.605 29.1015L137.744 16.9921V33.6914H126.709M170.264 0H181.494V22.5586H197.412V33.6914H170.264" fill="black"/>
<path d="M52.5391 229.98L36.4258 49.1211H213.574L197.461 229.882L124.854 250" fill="#E44D26"/>
<path d="M125 234.619V63.9648H197.412L183.594 218.261" fill="#F16529"/>
<path d="M69.3359 86.084H125V108.252H93.6523L95.7031 130.957H125V153.076H75.3906M76.3672 164.209H98.6328L100.195 181.934L125 188.574V211.719L79.4922 199.024" fill="#EBEBEB"/>
<path d="M180.469 86.084H124.902V108.252H178.418M176.416 130.957H124.902V153.125H152.246L149.658 181.934L124.902 188.574V211.621L170.312 199.024" fill="white"/>
</g>
<defs>
<clipPath id="clip0_13_54">
<rect width="250" height="250" fill="white"/>
</clipPath>
</defs>
</svg>
