<svg width="250" height="200" viewBox="0 0 250 200" fill="none" xmlns="http://www.w3.org/2000/svg">
<g clip-path="url(#clip0_11_25)">
<path d="M250 0H0V200H250V0Z" fill="#F7DF1E"/>
<path d="M167.936 156.251C172.972 162.829 179.524 167.663 191.111 167.663C200.845 167.663 207.063 163.771 207.063 158.394C207.063 151.949 200.675 149.667 189.96 145.917L184.087 143.902C167.135 138.124 155.873 130.886 155.873 115.584C155.873 101.489 169.298 90.7587 190.278 90.7587C205.214 90.7587 215.952 94.9175 223.69 105.806L205.397 115.203C201.369 109.425 197.024 107.149 190.278 107.149C183.397 107.149 179.036 110.641 179.036 115.203C179.036 120.841 183.401 123.124 193.48 126.616L199.353 128.629C219.313 135.476 230.583 142.457 230.583 158.152C230.583 175.073 213.968 184.343 191.655 184.343C169.837 184.343 155.742 176.025 148.845 165.124L167.936 156.251ZM84.9484 157.879C88.6389 163.117 91.996 167.546 100.067 167.546C107.786 167.546 112.655 165.13 112.655 155.737V91.8317H136.147V155.99C136.147 175.451 121.885 184.308 101.067 184.308C82.2579 184.308 71.3651 176.521 65.8254 167.141L84.9484 157.879Z" fill="black"/>
</g>
<defs>
<clipPath id="clip0_11_25">
<rect width="250" height="200" fill="white"/>
</clipPath>
</defs>
</svg>
