<svg width="200" height="200" viewBox="0 0 200 200" fill="none" xmlns="http://www.w3.org/2000/svg">
<g clip-path="url(#clip0_11_28)">
<g style="mix-blend-mode:multiply" opacity="0.2">
<path d="M62.2813 153.125C60.08 153.149 57.9472 153.893 56.2098 155.245C54.4724 156.597 53.2262 158.481 52.6623 160.609C52.0984 162.737 52.2479 164.991 53.0878 167.026C53.9277 169.061 55.4118 170.764 57.3125 171.875L92.8125 192C95.7365 193.662 99.0428 194.535 102.406 194.531C104.216 194.53 106.016 194.267 107.75 193.75L161.156 178.531C165.14 177.387 168.644 174.979 171.141 171.671C173.637 168.362 174.992 164.332 175 160.187V153.125H62.2813Z" fill="white"/>
</g>
<g style="mix-blend-mode:multiply" opacity="0.12">
<path d="M62.2813 153.125C60.08 153.149 57.9472 153.893 56.2098 155.245C54.4724 156.597 53.2262 158.481 52.6623 160.609C52.0984 162.737 52.2479 164.991 53.0878 167.026C53.9277 169.061 55.4118 170.764 57.3125 171.875L92.8125 192C95.7365 193.662 99.0428 194.535 102.406 194.531C104.216 194.53 106.016 194.267 107.75 193.75L161.156 178.531C165.14 177.387 168.644 174.979 171.141 171.671C173.637 168.362 174.992 164.332 175 160.187V153.125H62.2813Z" fill="white"/>
</g>
<path d="M107.531 6.25L121.875 39.0625V153.125L107.75 193.75L161.156 178.531C165.14 177.387 168.644 174.979 171.141 171.671C173.637 168.362 174.992 164.332 175 160.187V39.8125C175.002 35.6571 173.648 31.6145 171.144 28.2983C168.64 24.9821 165.122 22.5733 161.125 21.4375L107.531 6.25Z" fill="url(#paint0_linear_11_28)"/>
<path d="M39.8125 151.906L55.4375 143.469C57.5804 142.291 59.3668 140.558 60.6094 138.452C61.8521 136.347 62.5051 133.945 62.5 131.5V70.0937C62.5029 67.2967 63.3646 64.5679 64.9686 62.2765C66.5726 59.985 68.8416 58.2413 71.4688 57.2812L121.875 39.0625V25.2187C121.869 20.928 120.466 16.7559 117.878 13.3335C115.29 9.91105 111.658 7.42452 107.531 6.25C105.774 5.74532 103.954 5.4928 102.125 5.5C98.6857 5.50786 95.3064 6.40112 92.3125 8.09375L34.625 41C31.7018 42.6657 29.2714 45.0754 27.5809 47.9844C25.8904 50.8934 25 54.198 25 57.5625V143.062C24.9956 144.803 25.444 146.514 26.3012 148.029C27.1583 149.543 28.3947 150.809 29.8889 151.701C31.3831 152.593 33.0836 153.081 34.8235 153.117C36.5634 153.153 38.2827 152.736 39.8125 151.906Z" fill="url(#paint1_linear_11_28)"/>
<path d="M121.875 153.125H62.2813C60.08 153.149 57.9472 153.893 56.2098 155.245C54.4724 156.597 53.2262 158.481 52.6623 160.609C52.0984 162.737 52.2479 164.991 53.0878 167.026C53.9277 169.061 55.4118 170.764 57.3125 171.875L92.8125 192C95.7365 193.662 99.0428 194.535 102.406 194.531C104.216 194.53 106.016 194.267 107.75 193.75C111.826 192.592 115.413 190.133 117.963 186.748C120.513 183.363 121.886 179.238 121.875 175V153.125Z" fill="url(#paint2_linear_11_28)"/>
<path d="M39.8125 151.906L55.4375 143.469C57.5804 142.291 59.3668 140.558 60.6094 138.452C61.8521 136.347 62.5051 133.945 62.5 131.5V70.0937C62.5029 67.2967 63.3646 64.5679 64.9686 62.2765C66.5726 59.985 68.8416 58.2413 71.4688 57.2812L121.875 39.0625V25.2187C121.869 20.928 120.466 16.7559 117.878 13.3335C115.29 9.91105 111.658 7.42452 107.531 6.25C105.774 5.74532 103.954 5.4928 102.125 5.5C98.6857 5.50786 95.3064 6.40112 92.3125 8.09375L34.625 41C31.7018 42.6657 29.2714 45.0754 27.5809 47.9844C25.8904 50.8934 25 54.198 25 57.5625V143.062C24.9956 144.803 25.444 146.514 26.3012 148.029C27.1583 149.543 28.3947 150.809 29.8889 151.701C31.3831 152.593 33.0836 153.081 34.8235 153.117C36.5634 153.153 38.2827 152.736 39.8125 151.906Z" fill="url(#paint3_linear_11_28)"/>
<path d="M121.875 153.125H62.2813C60.08 153.149 57.9472 153.893 56.2098 155.245C54.4724 156.597 53.2262 158.481 52.6623 160.609C52.0984 162.737 52.2479 164.991 53.0878 167.026C53.9277 169.061 55.4118 170.764 57.3125 171.875L92.8125 192C95.7365 193.662 99.0428 194.535 102.406 194.531C104.216 194.53 106.016 194.267 107.75 193.75C111.826 192.592 115.413 190.133 117.963 186.748C120.513 183.363 121.886 179.238 121.875 175V153.125Z" fill="url(#paint4_linear_11_28)"/>
</g>
<defs>
<linearGradient id="paint0_linear_11_28" x1="141.25" y1="-4.4375" x2="141.25" y2="180.625" gradientUnits="userSpaceOnUse">
<stop stop-color="#FFB900"/>
<stop offset="0.17" stop-color="#EF8400"/>
<stop offset="0.31" stop-color="#E25C01"/>
<stop offset="0.43" stop-color="#DB4401"/>
<stop offset="0.5" stop-color="#D83B01"/>
</linearGradient>
<linearGradient id="paint1_linear_11_28" x1="107.875" y1="2.09375" x2="9.875" y2="142.031" gradientUnits="userSpaceOnUse">
<stop stop-color="#800600"/>
<stop offset="0.6" stop-color="#C72127"/>
<stop offset="0.73" stop-color="#C13959"/>
<stop offset="0.85" stop-color="#BC4B81"/>
<stop offset="0.94" stop-color="#B95799"/>
<stop offset="1" stop-color="#B85BA2"/>
</linearGradient>
<linearGradient id="paint2_linear_11_28" x1="57.8125" y1="173.844" x2="185.75" y2="173.844" gradientUnits="userSpaceOnUse">
<stop stop-color="#F32B44"/>
<stop offset="0.6" stop-color="#A4070A"/>
</linearGradient>
<linearGradient id="paint3_linear_11_28" x1="109.875" y1="-0.750004" x2="89.125" y2="28.875" gradientUnits="userSpaceOnUse">
<stop stop-opacity="0.4"/>
<stop offset="1" stop-opacity="0"/>
</linearGradient>
<linearGradient id="paint4_linear_11_28" x1="144.75" y1="176.719" x2="87.4688" y2="171.719" gradientUnits="userSpaceOnUse">
<stop stop-opacity="0.4"/>
<stop offset="1" stop-opacity="0"/>
</linearGradient>
<clipPath id="clip0_11_28">
<rect width="200" height="200" fill="white"/>
</clipPath>
</defs>
</svg>
